<mxfile host="65bd71144e" modified="2021-02-15T01:30:30.344Z" agent="5.0 (Macintosh; Intel Mac OS X 10_14_6) AppleWebKit/537.36 (KHTML, like Gecko) Code/1.53.1 Chrome/87.0.4280.141 Electron/11.2.1 Safari/537.36" etag="EVRjFX_nQydAXOpQM_sE" version="14.2.4" type="embed">
    <diagram id="Rl2H-qWxvH-F9XpEp8Ly" name="第 1 页">
        <mxGraphModel dx="991" dy="373" grid="1" gridSize="10" guides="1" tooltips="1" connect="1" arrows="1" fold="1" page="1" pageScale="1" pageWidth="827" pageHeight="1169" math="0" shadow="0">
            <root>
                <mxCell id="0"/>
                <mxCell id="1" parent="0"/>
                <mxCell id="bNq9qKvwXNsHU42iPRJy-5" style="edgeStyle=orthogonalEdgeStyle;orthogonalLoop=1;jettySize=auto;html=1;exitX=0;exitY=0.5;exitDx=0;exitDy=0;entryX=0.5;entryY=0;entryDx=0;entryDy=0;curved=1;fontFamily=Comic Sans MS;" parent="1" source="bNq9qKvwXNsHU42iPRJy-1" target="bNq9qKvwXNsHU42iPRJy-4" edge="1">
                    <mxGeometry relative="1" as="geometry"/>
                </mxCell>
                <mxCell id="bNq9qKvwXNsHU42iPRJy-14" value="render" style="edgeLabel;html=1;align=center;verticalAlign=middle;resizable=0;points=[];fontFamily=Comic Sans MS;" parent="bNq9qKvwXNsHU42iPRJy-5" vertex="1" connectable="0">
                    <mxGeometry x="-0.04" y="3" relative="1" as="geometry">
                        <mxPoint as="offset"/>
                    </mxGeometry>
                </mxCell>
                <mxCell id="bNq9qKvwXNsHU42iPRJy-27" style="edgeStyle=orthogonalEdgeStyle;curved=1;orthogonalLoop=1;jettySize=auto;html=1;exitX=1;exitY=0.25;exitDx=0;exitDy=0;entryX=0;entryY=0.25;entryDx=0;entryDy=0;fontFamily=Comic Sans MS;" parent="1" source="bNq9qKvwXNsHU42iPRJy-1" target="bNq9qKvwXNsHU42iPRJy-2" edge="1">
                    <mxGeometry relative="1" as="geometry"/>
                </mxCell>
                <mxCell id="bNq9qKvwXNsHU42iPRJy-29" value="alternate" style="edgeLabel;html=1;align=center;verticalAlign=middle;resizable=0;points=[];fontFamily=Comic Sans MS;" parent="bNq9qKvwXNsHU42iPRJy-27" vertex="1" connectable="0">
                    <mxGeometry x="-0.275" y="-3" relative="1" as="geometry">
                        <mxPoint x="11" y="-3" as="offset"/>
                    </mxGeometry>
                </mxCell>
                <mxCell id="bNq9qKvwXNsHU42iPRJy-40" style="edgeStyle=orthogonalEdgeStyle;curved=1;orthogonalLoop=1;jettySize=auto;html=1;exitX=0.75;exitY=1;exitDx=0;exitDy=0;entryX=0.75;entryY=0;entryDx=0;entryDy=0;fontFamily=Comic Sans MS;" parent="1" source="bNq9qKvwXNsHU42iPRJy-1" target="bNq9qKvwXNsHU42iPRJy-3" edge="1">
                    <mxGeometry relative="1" as="geometry"/>
                </mxCell>
                <mxCell id="bNq9qKvwXNsHU42iPRJy-42" value="child" style="edgeLabel;html=1;align=center;verticalAlign=middle;resizable=0;points=[];fontFamily=Comic Sans MS;" parent="bNq9qKvwXNsHU42iPRJy-40" vertex="1" connectable="0">
                    <mxGeometry x="-0.2167" y="-1" relative="1" as="geometry">
                        <mxPoint as="offset"/>
                    </mxGeometry>
                </mxCell>
                <mxCell id="bNq9qKvwXNsHU42iPRJy-1" value="App" style="rounded=0;whiteSpace=wrap;html=1;fillColor=#dae8fc;strokeColor=#6c8ebf;fontFamily=Comic Sans MS;" parent="1" vertex="1">
                    <mxGeometry x="150" y="240" width="100" height="40" as="geometry"/>
                </mxCell>
                <mxCell id="bNq9qKvwXNsHU42iPRJy-25" style="edgeStyle=orthogonalEdgeStyle;curved=1;orthogonalLoop=1;jettySize=auto;html=1;exitX=1;exitY=0.5;exitDx=0;exitDy=0;entryX=0.5;entryY=0;entryDx=0;entryDy=0;fontFamily=Comic Sans MS;" parent="1" source="bNq9qKvwXNsHU42iPRJy-2" target="bNq9qKvwXNsHU42iPRJy-19" edge="1">
                    <mxGeometry relative="1" as="geometry"/>
                </mxCell>
                <mxCell id="bNq9qKvwXNsHU42iPRJy-52" value="render" style="edgeLabel;html=1;align=center;verticalAlign=middle;resizable=0;points=[];fontFamily=Comic Sans MS;" parent="bNq9qKvwXNsHU42iPRJy-25" vertex="1" connectable="0">
                    <mxGeometry x="-0.3143" y="-2" relative="1" as="geometry">
                        <mxPoint as="offset"/>
                    </mxGeometry>
                </mxCell>
                <mxCell id="bNq9qKvwXNsHU42iPRJy-28" style="edgeStyle=orthogonalEdgeStyle;curved=1;orthogonalLoop=1;jettySize=auto;html=1;exitX=0;exitY=0.75;exitDx=0;exitDy=0;entryX=1;entryY=0.75;entryDx=0;entryDy=0;fontFamily=Comic Sans MS;" parent="1" source="bNq9qKvwXNsHU42iPRJy-2" target="bNq9qKvwXNsHU42iPRJy-1" edge="1">
                    <mxGeometry relative="1" as="geometry"/>
                </mxCell>
                <mxCell id="bNq9qKvwXNsHU42iPRJy-30" value="alternate" style="edgeLabel;html=1;align=center;verticalAlign=middle;resizable=0;points=[];fontFamily=Comic Sans MS;" parent="bNq9qKvwXNsHU42iPRJy-28" vertex="1" connectable="0">
                    <mxGeometry x="0.2" relative="1" as="geometry">
                        <mxPoint x="8" as="offset"/>
                    </mxGeometry>
                </mxCell>
                <mxCell id="bNq9qKvwXNsHU42iPRJy-35" style="edgeStyle=orthogonalEdgeStyle;curved=1;orthogonalLoop=1;jettySize=auto;html=1;exitX=0.25;exitY=1;exitDx=0;exitDy=0;entryX=0.25;entryY=0;entryDx=0;entryDy=0;fontFamily=Comic Sans MS;" parent="1" source="bNq9qKvwXNsHU42iPRJy-2" target="bNq9qKvwXNsHU42iPRJy-18" edge="1">
                    <mxGeometry relative="1" as="geometry"/>
                </mxCell>
                <mxCell id="bNq9qKvwXNsHU42iPRJy-36" value="child" style="edgeLabel;html=1;align=center;verticalAlign=middle;resizable=0;points=[];fontFamily=Comic Sans MS;" parent="bNq9qKvwXNsHU42iPRJy-35" vertex="1" connectable="0">
                    <mxGeometry x="-0.2167" relative="1" as="geometry">
                        <mxPoint as="offset"/>
                    </mxGeometry>
                </mxCell>
                <mxCell id="bNq9qKvwXNsHU42iPRJy-2" value="App" style="rounded=0;whiteSpace=wrap;html=1;fillColor=#dae8fc;strokeColor=#6c8ebf;fontFamily=Comic Sans MS;" parent="1" vertex="1">
                    <mxGeometry x="320" y="240" width="100" height="40" as="geometry"/>
                </mxCell>
                <mxCell id="bNq9qKvwXNsHU42iPRJy-31" style="edgeStyle=orthogonalEdgeStyle;curved=1;orthogonalLoop=1;jettySize=auto;html=1;exitX=1;exitY=0.25;exitDx=0;exitDy=0;entryX=0;entryY=0.25;entryDx=0;entryDy=0;fontFamily=Comic Sans MS;" parent="1" source="bNq9qKvwXNsHU42iPRJy-3" target="bNq9qKvwXNsHU42iPRJy-18" edge="1">
                    <mxGeometry relative="1" as="geometry"/>
                </mxCell>
                <mxCell id="bNq9qKvwXNsHU42iPRJy-33" value="alternate" style="edgeLabel;html=1;align=center;verticalAlign=middle;resizable=0;points=[];fontFamily=Comic Sans MS;" parent="bNq9qKvwXNsHU42iPRJy-31" vertex="1" connectable="0">
                    <mxGeometry x="-0.275" y="1" relative="1" as="geometry">
                        <mxPoint x="9" as="offset"/>
                    </mxGeometry>
                </mxCell>
                <mxCell id="bNq9qKvwXNsHU42iPRJy-41" style="edgeStyle=orthogonalEdgeStyle;curved=1;orthogonalLoop=1;jettySize=auto;html=1;exitX=0.25;exitY=0;exitDx=0;exitDy=0;entryX=0.25;entryY=1;entryDx=0;entryDy=0;fontFamily=Comic Sans MS;" parent="1" source="bNq9qKvwXNsHU42iPRJy-3" target="bNq9qKvwXNsHU42iPRJy-1" edge="1">
                    <mxGeometry relative="1" as="geometry"/>
                </mxCell>
                <mxCell id="bNq9qKvwXNsHU42iPRJy-43" value="return" style="edgeLabel;html=1;align=center;verticalAlign=middle;resizable=0;points=[];fontFamily=Comic Sans MS;" parent="bNq9qKvwXNsHU42iPRJy-41" vertex="1" connectable="0">
                    <mxGeometry x="-0.1833" y="-1" relative="1" as="geometry">
                        <mxPoint as="offset"/>
                    </mxGeometry>
                </mxCell>
                <mxCell id="bNq9qKvwXNsHU42iPRJy-3" value="Son" style="rounded=0;whiteSpace=wrap;html=1;fillColor=#dae8fc;strokeColor=#6c8ebf;fontFamily=Comic Sans MS;" parent="1" vertex="1">
                    <mxGeometry x="150" y="400" width="100" height="40" as="geometry"/>
                </mxCell>
                <mxCell id="bNq9qKvwXNsHU42iPRJy-6" style="edgeStyle=orthogonalEdgeStyle;orthogonalLoop=1;jettySize=auto;html=1;entryX=0;entryY=0.5;entryDx=0;entryDy=0;curved=1;exitX=0.5;exitY=1;exitDx=0;exitDy=0;fontFamily=Comic Sans MS;" parent="1" source="bNq9qKvwXNsHU42iPRJy-7" target="bNq9qKvwXNsHU42iPRJy-3" edge="1">
                    <mxGeometry relative="1" as="geometry">
                        <mxPoint x="50" y="370" as="sourcePoint"/>
                    </mxGeometry>
                </mxCell>
                <mxCell id="bNq9qKvwXNsHU42iPRJy-15" value="create" style="edgeLabel;html=1;align=center;verticalAlign=middle;resizable=0;points=[];fontFamily=Comic Sans MS;" parent="bNq9qKvwXNsHU42iPRJy-6" vertex="1" connectable="0">
                    <mxGeometry x="0.0875" y="11" relative="1" as="geometry">
                        <mxPoint as="offset"/>
                    </mxGeometry>
                </mxCell>
                <mxCell id="bNq9qKvwXNsHU42iPRJy-4" value="Son" style="rounded=0;whiteSpace=wrap;html=1;fillColor=#f8cecc;strokeColor=#b85450;fontFamily=Comic Sans MS;" parent="1" vertex="1">
                    <mxGeometry y="310" width="100" height="30" as="geometry"/>
                </mxCell>
                <mxCell id="bNq9qKvwXNsHU42iPRJy-12" style="edgeStyle=orthogonalEdgeStyle;curved=1;orthogonalLoop=1;jettySize=auto;html=1;exitX=0;exitY=0.5;exitDx=0;exitDy=0;entryX=1;entryY=0.5;entryDx=0;entryDy=0;fontFamily=Comic Sans MS;" parent="1" source="bNq9qKvwXNsHU42iPRJy-7" target="bNq9qKvwXNsHU42iPRJy-10" edge="1">
                    <mxGeometry relative="1" as="geometry"/>
                </mxCell>
                <mxCell id="bNq9qKvwXNsHU42iPRJy-7" value="props" style="rounded=0;whiteSpace=wrap;html=1;fontFamily=Comic Sans MS;" parent="1" vertex="1">
                    <mxGeometry y="340" width="100" height="20" as="geometry"/>
                </mxCell>
                <mxCell id="bNq9qKvwXNsHU42iPRJy-10" value="" style="ellipse;whiteSpace=wrap;html=1;fillColor=#f5f5f5;strokeColor=#666666;fontColor=#333333;fontFamily=Comic Sans MS;" parent="1" vertex="1">
                    <mxGeometry x="-70" y="335" width="30" height="30" as="geometry"/>
                </mxCell>
                <mxCell id="bNq9qKvwXNsHU42iPRJy-32" style="edgeStyle=orthogonalEdgeStyle;curved=1;orthogonalLoop=1;jettySize=auto;html=1;exitX=0;exitY=0.75;exitDx=0;exitDy=0;entryX=1;entryY=0.75;entryDx=0;entryDy=0;fontFamily=Comic Sans MS;" parent="1" source="bNq9qKvwXNsHU42iPRJy-18" target="bNq9qKvwXNsHU42iPRJy-3" edge="1">
                    <mxGeometry relative="1" as="geometry"/>
                </mxCell>
                <mxCell id="bNq9qKvwXNsHU42iPRJy-34" value="alternate" style="edgeLabel;html=1;align=center;verticalAlign=middle;resizable=0;points=[];fontFamily=Comic Sans MS;" parent="bNq9qKvwXNsHU42iPRJy-32" vertex="1" connectable="0">
                    <mxGeometry x="0.1" y="-1" relative="1" as="geometry">
                        <mxPoint x="2" as="offset"/>
                    </mxGeometry>
                </mxCell>
                <mxCell id="bNq9qKvwXNsHU42iPRJy-37" style="edgeStyle=orthogonalEdgeStyle;curved=1;orthogonalLoop=1;jettySize=auto;html=1;exitX=0.75;exitY=0;exitDx=0;exitDy=0;entryX=0.75;entryY=1;entryDx=0;entryDy=0;fontFamily=Comic Sans MS;" parent="1" source="bNq9qKvwXNsHU42iPRJy-18" target="bNq9qKvwXNsHU42iPRJy-2" edge="1">
                    <mxGeometry relative="1" as="geometry"/>
                </mxCell>
                <mxCell id="bNq9qKvwXNsHU42iPRJy-38" value="return" style="edgeLabel;html=1;align=center;verticalAlign=middle;resizable=0;points=[];fontFamily=Comic Sans MS;" parent="bNq9qKvwXNsHU42iPRJy-37" vertex="1" connectable="0">
                    <mxGeometry x="-0.2167" relative="1" as="geometry">
                        <mxPoint as="offset"/>
                    </mxGeometry>
                </mxCell>
                <mxCell id="bNq9qKvwXNsHU42iPRJy-18" value="Son" style="rounded=0;whiteSpace=wrap;html=1;fillColor=#dae8fc;strokeColor=#6c8ebf;fontFamily=Comic Sans MS;" parent="1" vertex="1">
                    <mxGeometry x="320" y="400" width="100" height="40" as="geometry"/>
                </mxCell>
                <mxCell id="bNq9qKvwXNsHU42iPRJy-19" value="Son" style="rounded=0;whiteSpace=wrap;html=1;fillColor=#f8cecc;strokeColor=#b85450;fontFamily=Comic Sans MS;" parent="1" vertex="1">
                    <mxGeometry x="460" y="310" width="100" height="30" as="geometry"/>
                </mxCell>
                <mxCell id="bNq9qKvwXNsHU42iPRJy-20" style="edgeStyle=orthogonalEdgeStyle;curved=1;orthogonalLoop=1;jettySize=auto;html=1;exitX=1;exitY=0.5;exitDx=0;exitDy=0;entryX=0;entryY=0.5;entryDx=0;entryDy=0;fontFamily=Comic Sans MS;" parent="1" source="bNq9qKvwXNsHU42iPRJy-21" target="bNq9qKvwXNsHU42iPRJy-24" edge="1">
                    <mxGeometry relative="1" as="geometry"/>
                </mxCell>
                <mxCell id="bNq9qKvwXNsHU42iPRJy-21" value="props" style="rounded=0;whiteSpace=wrap;html=1;fontFamily=Comic Sans MS;" parent="1" vertex="1">
                    <mxGeometry x="460" y="340" width="100" height="20" as="geometry"/>
                </mxCell>
                <mxCell id="bNq9qKvwXNsHU42iPRJy-26" style="edgeStyle=orthogonalEdgeStyle;curved=1;orthogonalLoop=1;jettySize=auto;html=1;exitX=0.5;exitY=1;exitDx=0;exitDy=0;entryX=1;entryY=0.5;entryDx=0;entryDy=0;fontFamily=Comic Sans MS;" parent="1" source="bNq9qKvwXNsHU42iPRJy-21" target="bNq9qKvwXNsHU42iPRJy-18" edge="1">
                    <mxGeometry relative="1" as="geometry">
                        <mxPoint x="510" y="370" as="sourcePoint"/>
                    </mxGeometry>
                </mxCell>
                <mxCell id="bNq9qKvwXNsHU42iPRJy-51" value="create" style="edgeLabel;html=1;align=center;verticalAlign=middle;resizable=0;points=[];fontFamily=Comic Sans MS;" parent="bNq9qKvwXNsHU42iPRJy-26" vertex="1" connectable="0">
                    <mxGeometry x="0.0533" y="-14" relative="1" as="geometry">
                        <mxPoint as="offset"/>
                    </mxGeometry>
                </mxCell>
                <mxCell id="bNq9qKvwXNsHU42iPRJy-24" value="" style="ellipse;whiteSpace=wrap;html=1;fillColor=#f5f5f5;strokeColor=#666666;fontColor=#333333;fontFamily=Comic Sans MS;" parent="1" vertex="1">
                    <mxGeometry x="600" y="335" width="30" height="30" as="geometry"/>
                </mxCell>
                <mxCell id="bNq9qKvwXNsHU42iPRJy-49" style="edgeStyle=orthogonalEdgeStyle;curved=1;orthogonalLoop=1;jettySize=auto;html=1;exitX=0;exitY=0.5;exitDx=0;exitDy=0;entryX=1;entryY=1;entryDx=0;entryDy=0;fontFamily=Comic Sans MS;" parent="1" source="bNq9qKvwXNsHU42iPRJy-44" target="bNq9qKvwXNsHU42iPRJy-10" edge="1">
                    <mxGeometry relative="1" as="geometry"/>
                </mxCell>
                <mxCell id="bNq9qKvwXNsHU42iPRJy-44" value="memoizedProps" style="rounded=0;whiteSpace=wrap;html=1;fontFamily=Comic Sans MS;" parent="1" vertex="1">
                    <mxGeometry x="150" y="440" width="100" height="20" as="geometry"/>
                </mxCell>
                <mxCell id="bNq9qKvwXNsHU42iPRJy-53" style="edgeStyle=orthogonalEdgeStyle;curved=1;orthogonalLoop=1;jettySize=auto;html=1;exitX=1;exitY=0.5;exitDx=0;exitDy=0;entryX=0;entryY=1;entryDx=0;entryDy=0;fontFamily=Comic Sans MS;" parent="1" source="bNq9qKvwXNsHU42iPRJy-45" target="bNq9qKvwXNsHU42iPRJy-24" edge="1">
                    <mxGeometry relative="1" as="geometry"/>
                </mxCell>
                <mxCell id="bNq9qKvwXNsHU42iPRJy-45" value="memoizedProps" style="rounded=0;whiteSpace=wrap;html=1;fontFamily=Comic Sans MS;" parent="1" vertex="1">
                    <mxGeometry x="320" y="440" width="100" height="20" as="geometry"/>
                </mxCell>
                <mxCell id="bNq9qKvwXNsHU42iPRJy-50" style="edgeStyle=orthogonalEdgeStyle;curved=1;orthogonalLoop=1;jettySize=auto;html=1;exitX=0;exitY=0.5;exitDx=0;exitDy=0;entryX=0.5;entryY=1;entryDx=0;entryDy=0;fontFamily=Comic Sans MS;" parent="1" source="bNq9qKvwXNsHU42iPRJy-46" target="bNq9qKvwXNsHU42iPRJy-10" edge="1">
                    <mxGeometry relative="1" as="geometry"/>
                </mxCell>
                <mxCell id="bNq9qKvwXNsHU42iPRJy-46" value="pendingProps" style="rounded=0;whiteSpace=wrap;html=1;fontFamily=Comic Sans MS;" parent="1" vertex="1">
                    <mxGeometry x="150" y="460" width="100" height="20" as="geometry"/>
                </mxCell>
                <mxCell id="bNq9qKvwXNsHU42iPRJy-54" style="edgeStyle=orthogonalEdgeStyle;curved=1;orthogonalLoop=1;jettySize=auto;html=1;exitX=1;exitY=0.5;exitDx=0;exitDy=0;entryX=0.5;entryY=1;entryDx=0;entryDy=0;fontFamily=Comic Sans MS;" parent="1" source="bNq9qKvwXNsHU42iPRJy-48" target="bNq9qKvwXNsHU42iPRJy-24" edge="1">
                    <mxGeometry relative="1" as="geometry"/>
                </mxCell>
                <mxCell id="bNq9qKvwXNsHU42iPRJy-48" value="pendingProps" style="rounded=0;whiteSpace=wrap;html=1;fontFamily=Comic Sans MS;" parent="1" vertex="1">
                    <mxGeometry x="320" y="460" width="100" height="20" as="geometry"/>
                </mxCell>
                <mxCell id="V-XepMtDFzow8mr9bf4K-1" value="" style="endArrow=classic;html=1;entryX=0.5;entryY=1;entryDx=0;entryDy=0;dashed=1;fontFamily=Comic Sans MS;" parent="1" target="bNq9qKvwXNsHU42iPRJy-48" edge="1">
                    <mxGeometry width="50" height="50" relative="1" as="geometry">
                        <mxPoint x="370" y="520" as="sourcePoint"/>
                        <mxPoint x="400" y="550" as="targetPoint"/>
                    </mxGeometry>
                </mxCell>
                <mxCell id="V-XepMtDFzow8mr9bf4K-2" value="workInProgress" style="text;html=1;strokeColor=none;fillColor=none;align=center;verticalAlign=middle;whiteSpace=wrap;rounded=0;fontFamily=Comic Sans MS;" parent="1" vertex="1">
                    <mxGeometry x="350" y="520" width="40" height="20" as="geometry"/>
                </mxCell>
                <mxCell id="V-XepMtDFzow8mr9bf4K-3" value="" style="endArrow=classic;html=1;entryX=0.5;entryY=1;entryDx=0;entryDy=0;dashed=1;fontFamily=Comic Sans MS;" parent="1" edge="1">
                    <mxGeometry width="50" height="50" relative="1" as="geometry">
                        <mxPoint x="200" y="520" as="sourcePoint"/>
                        <mxPoint x="200" y="480" as="targetPoint"/>
                    </mxGeometry>
                </mxCell>
                <mxCell id="V-XepMtDFzow8mr9bf4K-4" value="current" style="text;html=1;strokeColor=none;fillColor=none;align=center;verticalAlign=middle;whiteSpace=wrap;rounded=0;fontFamily=Comic Sans MS;" parent="1" vertex="1">
                    <mxGeometry x="180" y="520" width="40" height="20" as="geometry"/>
                </mxCell>
                <mxCell id="V-XepMtDFzow8mr9bf4K-5" value="" style="rounded=0;whiteSpace=wrap;html=1;fontFamily=Comic Sans MS;fillColor=#f8cecc;strokeColor=#b85450;" parent="1" vertex="1">
                    <mxGeometry x="-40" y="560" width="40" height="20" as="geometry"/>
                </mxCell>
                <mxCell id="V-XepMtDFzow8mr9bf4K-6" value="ReactElement" style="text;html=1;strokeColor=none;fillColor=none;align=center;verticalAlign=middle;whiteSpace=wrap;rounded=0;fontFamily=Comic Sans MS;" parent="1" vertex="1">
                    <mxGeometry x="40" y="560" width="40" height="20" as="geometry"/>
                </mxCell>
                <mxCell id="V-XepMtDFzow8mr9bf4K-7" value="" style="rounded=0;whiteSpace=wrap;html=1;fontFamily=Comic Sans MS;fillColor=#dae8fc;strokeColor=#6c8ebf;" parent="1" vertex="1">
                    <mxGeometry x="-40" y="590" width="40" height="20" as="geometry"/>
                </mxCell>
                <mxCell id="V-XepMtDFzow8mr9bf4K-8" value="Fiber" style="text;html=1;strokeColor=none;fillColor=none;align=center;verticalAlign=middle;whiteSpace=wrap;rounded=0;fontFamily=Comic Sans MS;" parent="1" vertex="1">
                    <mxGeometry x="16" y="590" width="40" height="20" as="geometry"/>
                </mxCell>
                <mxCell id="V-XepMtDFzow8mr9bf4K-9" style="edgeStyle=orthogonalEdgeStyle;orthogonalLoop=1;jettySize=auto;html=1;exitX=0;exitY=0.5;exitDx=0;exitDy=0;entryX=0.5;entryY=0;entryDx=0;entryDy=0;curved=1;fontFamily=Comic Sans MS;" edge="1" parent="1" source="V-XepMtDFzow8mr9bf4K-15" target="V-XepMtDFzow8mr9bf4K-30">
                    <mxGeometry relative="1" as="geometry"/>
                </mxCell>
                <mxCell id="V-XepMtDFzow8mr9bf4K-10" value="render" style="edgeLabel;html=1;align=center;verticalAlign=middle;resizable=0;points=[];fontFamily=Comic Sans MS;" connectable="0" vertex="1" parent="V-XepMtDFzow8mr9bf4K-9">
                    <mxGeometry x="-0.04" y="3" relative="1" as="geometry">
                        <mxPoint as="offset"/>
                    </mxGeometry>
                </mxCell>
                <mxCell id="V-XepMtDFzow8mr9bf4K-11" style="edgeStyle=orthogonalEdgeStyle;curved=1;orthogonalLoop=1;jettySize=auto;html=1;exitX=1;exitY=0.25;exitDx=0;exitDy=0;entryX=0;entryY=0.25;entryDx=0;entryDy=0;fontFamily=Comic Sans MS;" edge="1" parent="1" source="V-XepMtDFzow8mr9bf4K-15" target="V-XepMtDFzow8mr9bf4K-22">
                    <mxGeometry relative="1" as="geometry"/>
                </mxCell>
                <mxCell id="V-XepMtDFzow8mr9bf4K-12" value="alternate" style="edgeLabel;html=1;align=center;verticalAlign=middle;resizable=0;points=[];fontFamily=Comic Sans MS;" connectable="0" vertex="1" parent="V-XepMtDFzow8mr9bf4K-11">
                    <mxGeometry x="-0.275" y="-3" relative="1" as="geometry">
                        <mxPoint x="11" y="-3" as="offset"/>
                    </mxGeometry>
                </mxCell>
                <mxCell id="V-XepMtDFzow8mr9bf4K-13" style="edgeStyle=orthogonalEdgeStyle;curved=1;orthogonalLoop=1;jettySize=auto;html=1;exitX=0.75;exitY=1;exitDx=0;exitDy=0;entryX=0.75;entryY=0;entryDx=0;entryDy=0;fontFamily=Comic Sans MS;" edge="1" parent="1" source="V-XepMtDFzow8mr9bf4K-15" target="V-XepMtDFzow8mr9bf4K-27">
                    <mxGeometry relative="1" as="geometry"/>
                </mxCell>
                <mxCell id="V-XepMtDFzow8mr9bf4K-14" value="child" style="edgeLabel;html=1;align=center;verticalAlign=middle;resizable=0;points=[];fontFamily=Comic Sans MS;" connectable="0" vertex="1" parent="V-XepMtDFzow8mr9bf4K-13">
                    <mxGeometry x="-0.2167" y="-1" relative="1" as="geometry">
                        <mxPoint as="offset"/>
                    </mxGeometry>
                </mxCell>
                <mxCell id="V-XepMtDFzow8mr9bf4K-15" value="App" style="rounded=0;whiteSpace=wrap;html=1;fillColor=#dae8fc;strokeColor=#6c8ebf;fontFamily=Comic Sans MS;" vertex="1" parent="1">
                    <mxGeometry x="50" y="160" width="100" height="40" as="geometry"/>
                </mxCell>
                <mxCell id="V-XepMtDFzow8mr9bf4K-16" style="edgeStyle=orthogonalEdgeStyle;curved=1;orthogonalLoop=1;jettySize=auto;html=1;exitX=1;exitY=0.5;exitDx=0;exitDy=0;entryX=0.5;entryY=0;entryDx=0;entryDy=0;fontFamily=Comic Sans MS;" edge="1" parent="1" source="V-XepMtDFzow8mr9bf4K-22" target="V-XepMtDFzow8mr9bf4K-39">
                    <mxGeometry relative="1" as="geometry"/>
                </mxCell>
                <mxCell id="V-XepMtDFzow8mr9bf4K-17" value="render" style="edgeLabel;html=1;align=center;verticalAlign=middle;resizable=0;points=[];fontFamily=Comic Sans MS;" connectable="0" vertex="1" parent="V-XepMtDFzow8mr9bf4K-16">
                    <mxGeometry x="-0.3143" y="-2" relative="1" as="geometry">
                        <mxPoint as="offset"/>
                    </mxGeometry>
                </mxCell>
                <mxCell id="V-XepMtDFzow8mr9bf4K-18" style="edgeStyle=orthogonalEdgeStyle;curved=1;orthogonalLoop=1;jettySize=auto;html=1;exitX=0;exitY=0.75;exitDx=0;exitDy=0;entryX=1;entryY=0.75;entryDx=0;entryDy=0;fontFamily=Comic Sans MS;" edge="1" parent="1" source="V-XepMtDFzow8mr9bf4K-22" target="V-XepMtDFzow8mr9bf4K-15">
                    <mxGeometry relative="1" as="geometry"/>
                </mxCell>
                <mxCell id="V-XepMtDFzow8mr9bf4K-19" value="alternate" style="edgeLabel;html=1;align=center;verticalAlign=middle;resizable=0;points=[];fontFamily=Comic Sans MS;" connectable="0" vertex="1" parent="V-XepMtDFzow8mr9bf4K-18">
                    <mxGeometry x="0.2" relative="1" as="geometry">
                        <mxPoint x="8" as="offset"/>
                    </mxGeometry>
                </mxCell>
                <mxCell id="V-XepMtDFzow8mr9bf4K-20" style="edgeStyle=orthogonalEdgeStyle;curved=1;orthogonalLoop=1;jettySize=auto;html=1;exitX=0.25;exitY=1;exitDx=0;exitDy=0;entryX=0.25;entryY=0;entryDx=0;entryDy=0;fontFamily=Comic Sans MS;" edge="1" parent="1" source="V-XepMtDFzow8mr9bf4K-22" target="V-XepMtDFzow8mr9bf4K-38">
                    <mxGeometry relative="1" as="geometry"/>
                </mxCell>
                <mxCell id="V-XepMtDFzow8mr9bf4K-21" value="child" style="edgeLabel;html=1;align=center;verticalAlign=middle;resizable=0;points=[];fontFamily=Comic Sans MS;" connectable="0" vertex="1" parent="V-XepMtDFzow8mr9bf4K-20">
                    <mxGeometry x="-0.2167" relative="1" as="geometry">
                        <mxPoint as="offset"/>
                    </mxGeometry>
                </mxCell>
                <mxCell id="V-XepMtDFzow8mr9bf4K-22" value="App" style="rounded=0;whiteSpace=wrap;html=1;fillColor=#dae8fc;strokeColor=#6c8ebf;fontFamily=Comic Sans MS;" vertex="1" parent="1">
                    <mxGeometry x="220" y="160" width="100" height="40" as="geometry"/>
                </mxCell>
                <mxCell id="V-XepMtDFzow8mr9bf4K-23" style="edgeStyle=orthogonalEdgeStyle;curved=1;orthogonalLoop=1;jettySize=auto;html=1;exitX=1;exitY=0.25;exitDx=0;exitDy=0;entryX=0;entryY=0.25;entryDx=0;entryDy=0;fontFamily=Comic Sans MS;" edge="1" parent="1" source="V-XepMtDFzow8mr9bf4K-27" target="V-XepMtDFzow8mr9bf4K-38">
                    <mxGeometry relative="1" as="geometry"/>
                </mxCell>
                <mxCell id="V-XepMtDFzow8mr9bf4K-24" value="alternate" style="edgeLabel;html=1;align=center;verticalAlign=middle;resizable=0;points=[];fontFamily=Comic Sans MS;" connectable="0" vertex="1" parent="V-XepMtDFzow8mr9bf4K-23">
                    <mxGeometry x="-0.275" y="1" relative="1" as="geometry">
                        <mxPoint x="9" as="offset"/>
                    </mxGeometry>
                </mxCell>
                <mxCell id="V-XepMtDFzow8mr9bf4K-25" style="edgeStyle=orthogonalEdgeStyle;curved=1;orthogonalLoop=1;jettySize=auto;html=1;exitX=0.25;exitY=0;exitDx=0;exitDy=0;entryX=0.25;entryY=1;entryDx=0;entryDy=0;fontFamily=Comic Sans MS;" edge="1" parent="1" source="V-XepMtDFzow8mr9bf4K-27" target="V-XepMtDFzow8mr9bf4K-15">
                    <mxGeometry relative="1" as="geometry"/>
                </mxCell>
                <mxCell id="V-XepMtDFzow8mr9bf4K-26" value="return" style="edgeLabel;html=1;align=center;verticalAlign=middle;resizable=0;points=[];fontFamily=Comic Sans MS;" connectable="0" vertex="1" parent="V-XepMtDFzow8mr9bf4K-25">
                    <mxGeometry x="-0.1833" y="-1" relative="1" as="geometry">
                        <mxPoint as="offset"/>
                    </mxGeometry>
                </mxCell>
                <mxCell id="V-XepMtDFzow8mr9bf4K-27" value="Son" style="rounded=0;whiteSpace=wrap;html=1;fillColor=#dae8fc;strokeColor=#6c8ebf;fontFamily=Comic Sans MS;" vertex="1" parent="1">
                    <mxGeometry x="50" y="320" width="100" height="40" as="geometry"/>
                </mxCell>
                <mxCell id="V-XepMtDFzow8mr9bf4K-28" style="edgeStyle=orthogonalEdgeStyle;orthogonalLoop=1;jettySize=auto;html=1;entryX=0;entryY=0.5;entryDx=0;entryDy=0;curved=1;exitX=0.5;exitY=1;exitDx=0;exitDy=0;fontFamily=Comic Sans MS;" edge="1" parent="1" source="V-XepMtDFzow8mr9bf4K-32" target="V-XepMtDFzow8mr9bf4K-27">
                    <mxGeometry relative="1" as="geometry">
                        <mxPoint x="-50" y="290" as="sourcePoint"/>
                    </mxGeometry>
                </mxCell>
                <mxCell id="V-XepMtDFzow8mr9bf4K-29" value="create" style="edgeLabel;html=1;align=center;verticalAlign=middle;resizable=0;points=[];fontFamily=Comic Sans MS;" connectable="0" vertex="1" parent="V-XepMtDFzow8mr9bf4K-28">
                    <mxGeometry x="0.0875" y="11" relative="1" as="geometry">
                        <mxPoint as="offset"/>
                    </mxGeometry>
                </mxCell>
                <mxCell id="V-XepMtDFzow8mr9bf4K-30" value="Son" style="rounded=0;whiteSpace=wrap;html=1;fillColor=#f8cecc;strokeColor=#b85450;fontFamily=Comic Sans MS;" vertex="1" parent="1">
                    <mxGeometry x="-100" y="230" width="100" height="30" as="geometry"/>
                </mxCell>
                <mxCell id="V-XepMtDFzow8mr9bf4K-31" style="edgeStyle=orthogonalEdgeStyle;curved=1;orthogonalLoop=1;jettySize=auto;html=1;exitX=0;exitY=0.5;exitDx=0;exitDy=0;entryX=1;entryY=0.5;entryDx=0;entryDy=0;fontFamily=Comic Sans MS;" edge="1" parent="1" source="V-XepMtDFzow8mr9bf4K-32" target="V-XepMtDFzow8mr9bf4K-33">
                    <mxGeometry relative="1" as="geometry"/>
                </mxCell>
                <mxCell id="V-XepMtDFzow8mr9bf4K-32" value="props" style="rounded=0;whiteSpace=wrap;html=1;fontFamily=Comic Sans MS;" vertex="1" parent="1">
                    <mxGeometry x="-100" y="260" width="100" height="20" as="geometry"/>
                </mxCell>
                <mxCell id="V-XepMtDFzow8mr9bf4K-33" value="" style="ellipse;whiteSpace=wrap;html=1;fillColor=#f5f5f5;strokeColor=#666666;fontColor=#333333;fontFamily=Comic Sans MS;" vertex="1" parent="1">
                    <mxGeometry x="-170" y="255" width="30" height="30" as="geometry"/>
                </mxCell>
                <mxCell id="V-XepMtDFzow8mr9bf4K-34" style="edgeStyle=orthogonalEdgeStyle;curved=1;orthogonalLoop=1;jettySize=auto;html=1;exitX=0;exitY=0.75;exitDx=0;exitDy=0;entryX=1;entryY=0.75;entryDx=0;entryDy=0;fontFamily=Comic Sans MS;" edge="1" parent="1" source="V-XepMtDFzow8mr9bf4K-38" target="V-XepMtDFzow8mr9bf4K-27">
                    <mxGeometry relative="1" as="geometry"/>
                </mxCell>
                <mxCell id="V-XepMtDFzow8mr9bf4K-35" value="alternate" style="edgeLabel;html=1;align=center;verticalAlign=middle;resizable=0;points=[];fontFamily=Comic Sans MS;" connectable="0" vertex="1" parent="V-XepMtDFzow8mr9bf4K-34">
                    <mxGeometry x="0.1" y="-1" relative="1" as="geometry">
                        <mxPoint x="2" as="offset"/>
                    </mxGeometry>
                </mxCell>
                <mxCell id="V-XepMtDFzow8mr9bf4K-36" style="edgeStyle=orthogonalEdgeStyle;curved=1;orthogonalLoop=1;jettySize=auto;html=1;exitX=0.75;exitY=0;exitDx=0;exitDy=0;entryX=0.75;entryY=1;entryDx=0;entryDy=0;fontFamily=Comic Sans MS;" edge="1" parent="1" source="V-XepMtDFzow8mr9bf4K-38" target="V-XepMtDFzow8mr9bf4K-22">
                    <mxGeometry relative="1" as="geometry"/>
                </mxCell>
                <mxCell id="V-XepMtDFzow8mr9bf4K-37" value="return" style="edgeLabel;html=1;align=center;verticalAlign=middle;resizable=0;points=[];fontFamily=Comic Sans MS;" connectable="0" vertex="1" parent="V-XepMtDFzow8mr9bf4K-36">
                    <mxGeometry x="-0.2167" relative="1" as="geometry">
                        <mxPoint as="offset"/>
                    </mxGeometry>
                </mxCell>
                <mxCell id="V-XepMtDFzow8mr9bf4K-38" value="Son" style="rounded=0;whiteSpace=wrap;html=1;fillColor=#dae8fc;strokeColor=#6c8ebf;fontFamily=Comic Sans MS;" vertex="1" parent="1">
                    <mxGeometry x="220" y="320" width="100" height="40" as="geometry"/>
                </mxCell>
                <mxCell id="V-XepMtDFzow8mr9bf4K-39" value="Son" style="rounded=0;whiteSpace=wrap;html=1;fillColor=#f8cecc;strokeColor=#b85450;fontFamily=Comic Sans MS;" vertex="1" parent="1">
                    <mxGeometry x="360" y="230" width="100" height="30" as="geometry"/>
                </mxCell>
                <mxCell id="V-XepMtDFzow8mr9bf4K-40" style="edgeStyle=orthogonalEdgeStyle;curved=1;orthogonalLoop=1;jettySize=auto;html=1;exitX=1;exitY=0.5;exitDx=0;exitDy=0;entryX=0;entryY=0.5;entryDx=0;entryDy=0;fontFamily=Comic Sans MS;" edge="1" parent="1" source="V-XepMtDFzow8mr9bf4K-41" target="V-XepMtDFzow8mr9bf4K-44">
                    <mxGeometry relative="1" as="geometry"/>
                </mxCell>
                <mxCell id="V-XepMtDFzow8mr9bf4K-41" value="props" style="rounded=0;whiteSpace=wrap;html=1;fontFamily=Comic Sans MS;" vertex="1" parent="1">
                    <mxGeometry x="360" y="260" width="100" height="20" as="geometry"/>
                </mxCell>
                <mxCell id="V-XepMtDFzow8mr9bf4K-42" style="edgeStyle=orthogonalEdgeStyle;curved=1;orthogonalLoop=1;jettySize=auto;html=1;exitX=0.5;exitY=1;exitDx=0;exitDy=0;entryX=1;entryY=0.5;entryDx=0;entryDy=0;fontFamily=Comic Sans MS;" edge="1" parent="1" source="V-XepMtDFzow8mr9bf4K-41" target="V-XepMtDFzow8mr9bf4K-38">
                    <mxGeometry relative="1" as="geometry">
                        <mxPoint x="410" y="290" as="sourcePoint"/>
                    </mxGeometry>
                </mxCell>
                <mxCell id="V-XepMtDFzow8mr9bf4K-43" value="create" style="edgeLabel;html=1;align=center;verticalAlign=middle;resizable=0;points=[];fontFamily=Comic Sans MS;" connectable="0" vertex="1" parent="V-XepMtDFzow8mr9bf4K-42">
                    <mxGeometry x="0.0533" y="-14" relative="1" as="geometry">
                        <mxPoint as="offset"/>
                    </mxGeometry>
                </mxCell>
                <mxCell id="V-XepMtDFzow8mr9bf4K-44" value="" style="ellipse;whiteSpace=wrap;html=1;fillColor=#f5f5f5;strokeColor=#666666;fontColor=#333333;fontFamily=Comic Sans MS;" vertex="1" parent="1">
                    <mxGeometry x="500" y="255" width="30" height="30" as="geometry"/>
                </mxCell>
                <mxCell id="V-XepMtDFzow8mr9bf4K-45" style="edgeStyle=orthogonalEdgeStyle;curved=1;orthogonalLoop=1;jettySize=auto;html=1;exitX=0;exitY=0.5;exitDx=0;exitDy=0;entryX=1;entryY=1;entryDx=0;entryDy=0;fontFamily=Comic Sans MS;" edge="1" parent="1" source="V-XepMtDFzow8mr9bf4K-46" target="V-XepMtDFzow8mr9bf4K-33">
                    <mxGeometry relative="1" as="geometry"/>
                </mxCell>
                <mxCell id="V-XepMtDFzow8mr9bf4K-46" value="memoizedProps" style="rounded=0;whiteSpace=wrap;html=1;fontFamily=Comic Sans MS;" vertex="1" parent="1">
                    <mxGeometry x="50" y="360" width="100" height="20" as="geometry"/>
                </mxCell>
                <mxCell id="V-XepMtDFzow8mr9bf4K-47" style="edgeStyle=orthogonalEdgeStyle;curved=1;orthogonalLoop=1;jettySize=auto;html=1;exitX=1;exitY=0.5;exitDx=0;exitDy=0;entryX=0;entryY=1;entryDx=0;entryDy=0;fontFamily=Comic Sans MS;" edge="1" parent="1" source="V-XepMtDFzow8mr9bf4K-48" target="V-XepMtDFzow8mr9bf4K-44">
                    <mxGeometry relative="1" as="geometry"/>
                </mxCell>
                <mxCell id="V-XepMtDFzow8mr9bf4K-48" value="memoizedProps" style="rounded=0;whiteSpace=wrap;html=1;fontFamily=Comic Sans MS;" vertex="1" parent="1">
                    <mxGeometry x="220" y="360" width="100" height="20" as="geometry"/>
                </mxCell>
                <mxCell id="V-XepMtDFzow8mr9bf4K-49" style="edgeStyle=orthogonalEdgeStyle;curved=1;orthogonalLoop=1;jettySize=auto;html=1;exitX=0;exitY=0.5;exitDx=0;exitDy=0;entryX=0.5;entryY=1;entryDx=0;entryDy=0;fontFamily=Comic Sans MS;" edge="1" parent="1" source="V-XepMtDFzow8mr9bf4K-50" target="V-XepMtDFzow8mr9bf4K-33">
                    <mxGeometry relative="1" as="geometry"/>
                </mxCell>
                <mxCell id="V-XepMtDFzow8mr9bf4K-50" value="pendingProps" style="rounded=0;whiteSpace=wrap;html=1;fontFamily=Comic Sans MS;" vertex="1" parent="1">
                    <mxGeometry x="50" y="380" width="100" height="20" as="geometry"/>
                </mxCell>
                <mxCell id="V-XepMtDFzow8mr9bf4K-51" style="edgeStyle=orthogonalEdgeStyle;curved=1;orthogonalLoop=1;jettySize=auto;html=1;exitX=1;exitY=0.5;exitDx=0;exitDy=0;entryX=0.5;entryY=1;entryDx=0;entryDy=0;fontFamily=Comic Sans MS;" edge="1" parent="1" source="V-XepMtDFzow8mr9bf4K-52" target="V-XepMtDFzow8mr9bf4K-44">
                    <mxGeometry relative="1" as="geometry"/>
                </mxCell>
                <mxCell id="V-XepMtDFzow8mr9bf4K-52" value="pendingProps" style="rounded=0;whiteSpace=wrap;html=1;fontFamily=Comic Sans MS;" vertex="1" parent="1">
                    <mxGeometry x="220" y="380" width="100" height="20" as="geometry"/>
                </mxCell>
                <mxCell id="V-XepMtDFzow8mr9bf4K-53" value="" style="endArrow=classic;html=1;entryX=0.5;entryY=1;entryDx=0;entryDy=0;dashed=1;fontFamily=Comic Sans MS;" edge="1" parent="1" target="V-XepMtDFzow8mr9bf4K-52">
                    <mxGeometry width="50" height="50" relative="1" as="geometry">
                        <mxPoint x="270" y="440" as="sourcePoint"/>
                        <mxPoint x="300" y="470" as="targetPoint"/>
                    </mxGeometry>
                </mxCell>
                <mxCell id="V-XepMtDFzow8mr9bf4K-54" value="workInProgress" style="text;html=1;strokeColor=none;fillColor=none;align=center;verticalAlign=middle;whiteSpace=wrap;rounded=0;fontFamily=Comic Sans MS;" vertex="1" parent="1">
                    <mxGeometry x="250" y="440" width="40" height="20" as="geometry"/>
                </mxCell>
                <mxCell id="V-XepMtDFzow8mr9bf4K-55" value="" style="endArrow=classic;html=1;entryX=0.5;entryY=1;entryDx=0;entryDy=0;dashed=1;fontFamily=Comic Sans MS;" edge="1" parent="1">
                    <mxGeometry width="50" height="50" relative="1" as="geometry">
                        <mxPoint x="100" y="440" as="sourcePoint"/>
                        <mxPoint x="100" y="400" as="targetPoint"/>
                    </mxGeometry>
                </mxCell>
                <mxCell id="V-XepMtDFzow8mr9bf4K-56" value="current" style="text;html=1;strokeColor=none;fillColor=none;align=center;verticalAlign=middle;whiteSpace=wrap;rounded=0;fontFamily=Comic Sans MS;" vertex="1" parent="1">
                    <mxGeometry x="80" y="440" width="40" height="20" as="geometry"/>
                </mxCell>
                <mxCell id="V-XepMtDFzow8mr9bf4K-57" value="" style="rounded=0;whiteSpace=wrap;html=1;fontFamily=Comic Sans MS;fillColor=#f8cecc;strokeColor=#b85450;" vertex="1" parent="1">
                    <mxGeometry x="-140" y="480" width="40" height="20" as="geometry"/>
                </mxCell>
                <mxCell id="V-XepMtDFzow8mr9bf4K-58" value="ReactElement" style="text;html=1;strokeColor=none;fillColor=none;align=center;verticalAlign=middle;whiteSpace=wrap;rounded=0;fontFamily=Comic Sans MS;" vertex="1" parent="1">
                    <mxGeometry x="-60" y="480" width="40" height="20" as="geometry"/>
                </mxCell>
                <mxCell id="V-XepMtDFzow8mr9bf4K-59" value="" style="rounded=0;whiteSpace=wrap;html=1;fontFamily=Comic Sans MS;fillColor=#dae8fc;strokeColor=#6c8ebf;" vertex="1" parent="1">
                    <mxGeometry x="-140" y="510" width="40" height="20" as="geometry"/>
                </mxCell>
                <mxCell id="V-XepMtDFzow8mr9bf4K-60" value="Fiber" style="text;html=1;strokeColor=none;fillColor=none;align=center;verticalAlign=middle;whiteSpace=wrap;rounded=0;fontFamily=Comic Sans MS;" vertex="1" parent="1">
                    <mxGeometry x="-84" y="510" width="40" height="20" as="geometry"/>
                </mxCell>
            </root>
        </mxGraphModel>
    </diagram>
</mxfile>